<svg xmlns="http://www.w3.org/2000/svg" viewBox="0 0 311.69 84.79"><defs><style>.cls-1{fill:#11235b;}.cls-2{fill:#0a99d6;}</style></defs><g id="Layer_2" data-name="Layer 2"><g id="Layer_1-2" data-name="Layer 1"><path class="cls-1" d="M82.39,58a8.65,8.65,0,0,0,5.1-1.19,3.92,3.92,0,0,0,1.59-3.34,4.28,4.28,0,0,0-.54-2.21A5.64,5.64,0,0,0,87,49.54a13,13,0,0,0-2.45-1.38c-1-.43-2-.85-3.29-1.27s-2.43-.93-3.57-1.46a11.9,11.9,0,0,1-3-2,9.16,9.16,0,0,1-2.11-2.83,9.05,9.05,0,0,1-.8-4,9.29,9.29,0,0,1,3.35-7.59c2.23-1.84,5.26-2.75,9.1-2.75a21.57,21.57,0,0,1,6,.74,18.63,18.63,0,0,1,4.09,1.62l-2,5.25a15.33,15.33,0,0,0-3.83-1.49,18,18,0,0,0-4.3-.52A6.79,6.79,0,0,0,80,33a3.56,3.56,0,0,0-1.47,3,4.07,4.07,0,0,0,.49,2,5.09,5.09,0,0,0,1.39,1.52,11.72,11.72,0,0,0,2.11,1.23c.81.38,1.69.74,2.65,1.08q2.52.93,4.5,1.88A12.8,12.8,0,0,1,93,46.05a8.79,8.79,0,0,1,2.08,3.08,11.48,11.48,0,0,1,.72,4.3,8.91,8.91,0,0,1-3.42,7.48q-3.42,2.66-10,2.65a26.42,26.42,0,0,1-4-.28,27.57,27.57,0,0,1-3.24-.69,24.18,24.18,0,0,1-2.44-.85,14.36,14.36,0,0,1-1.65-.8l1.91-5.3a20.86,20.86,0,0,0,3.75,1.54A18.37,18.37,0,0,0,82.39,58Z"/><path class="cls-1" d="M109.15,35.22a15.11,15.11,0,0,1,5.19.77,8.18,8.18,0,0,1,3.37,2.16,8.06,8.06,0,0,1,1.8,3.37,16.5,16.5,0,0,1,.54,4.35v16.3c-1,.21-2.41.46-4.34.75a44.66,44.66,0,0,1-6.56.44,19.61,19.61,0,0,1-4.43-.47,9,9,0,0,1-3.42-1.49,7,7,0,0,1-2.21-2.67,9.31,9.31,0,0,1-.8-4.07,7.88,7.88,0,0,1,.9-3.91,7.39,7.39,0,0,1,2.44-2.59,10.73,10.73,0,0,1,3.58-1.45,20.19,20.19,0,0,1,4.24-.43,18.11,18.11,0,0,1,2.16.13,19.66,19.66,0,0,1,2.42.43v-1a8.05,8.05,0,0,0-.25-2.05,4.55,4.55,0,0,0-.9-1.73,4.27,4.27,0,0,0-1.7-1.15,7.25,7.25,0,0,0-2.65-.42,24.11,24.11,0,0,0-4,.31,18.58,18.58,0,0,0-2.94.72l-.77-5a24.66,24.66,0,0,1,3.45-.82A26.54,26.54,0,0,1,109.15,35.22Zm.51,23.2a22.73,22.73,0,0,0,4.37-.31V51.22a10.37,10.37,0,0,0-1.49-.31,13,13,0,0,0-2.16-.16,13.34,13.34,0,0,0-2.08.16,6.55,6.55,0,0,0-1.91.56A3.49,3.49,0,0,0,105,52.63a3.25,3.25,0,0,0-.51,1.88,3.31,3.31,0,0,0,1.38,3.06A7.15,7.15,0,0,0,109.66,58.42Z"/><path class="cls-1" d="M135.59,35.22a15.13,15.13,0,0,1,5.2.77,8.25,8.25,0,0,1,3.37,2.16,8.06,8.06,0,0,1,1.8,3.37,16.5,16.5,0,0,1,.54,4.35v16.3q-1.44.31-4.35.75a44.66,44.66,0,0,1-6.56.44,19.52,19.52,0,0,1-4.42-.47,9.17,9.17,0,0,1-3.43-1.49,7,7,0,0,1-2.21-2.67,9.31,9.31,0,0,1-.8-4.07,7.88,7.88,0,0,1,.9-3.91,7.32,7.32,0,0,1,2.45-2.59,10.76,10.76,0,0,1,3.57-1.45,20.29,20.29,0,0,1,4.25-.43,18.36,18.36,0,0,1,2.16.13,20.35,20.35,0,0,1,2.42.43v-1a8.05,8.05,0,0,0-.26-2.05,4.07,4.07,0,0,0-2.6-2.88,7.18,7.18,0,0,0-2.65-.42,24.11,24.11,0,0,0-4,.31,18.15,18.15,0,0,0-2.93.72l-.77-5a24.45,24.45,0,0,1,3.44-.82A26.54,26.54,0,0,1,135.59,35.22Zm.51,23.2a22.92,22.92,0,0,0,4.38-.31V51.22a10.68,10.68,0,0,0-1.49-.31,13.23,13.23,0,0,0-2.17-.16,13.43,13.43,0,0,0-2.08.16,6.49,6.49,0,0,0-1.9.56,3.52,3.52,0,0,0-1.37,1.16,3.25,3.25,0,0,0-.51,1.88,3.29,3.29,0,0,0,1.39,3.06A7.11,7.11,0,0,0,136.1,58.42Z"/><path class="cls-1" d="M164.14,22.87a15,15,0,0,1,3.32.31,15.21,15.21,0,0,1,2.14.61l-1,5.05a13.82,13.82,0,0,0-1.72-.47,11.49,11.49,0,0,0-2.19-.2c-2.06,0-3.47.55-4.25,1.64a7.28,7.28,0,0,0-1.15,4.27v1.8h9.87v5.2h-9.87V62.79h-6.23V34c0-3.5.91-6.22,2.73-8.18S160.4,22.87,164.14,22.87ZM180.81,28a3.57,3.57,0,0,1-1.13,2.78,3.82,3.82,0,0,1-2.67,1,3.88,3.88,0,0,1-2.73-1A3.54,3.54,0,0,1,173.15,28a3.62,3.62,0,0,1,1.13-2.83,3.93,3.93,0,0,1,2.73-1,3.87,3.87,0,0,1,2.67,1A3.65,3.65,0,0,1,180.81,28Zm-.72,34.78h-6.22V35.88h6.22Z"/><path class="cls-1" d="M202.37,41.49a21,21,0,0,0-2.14-.54,15.59,15.59,0,0,0-3.16-.28,12.26,12.26,0,0,0-2.19.21,11,11,0,0,0-1.62.36V62.79H187V37.17a34.43,34.43,0,0,1,4.5-1.26,28.35,28.35,0,0,1,6-.59,13.23,13.23,0,0,1,1.44.08c.55.05,1.1.12,1.65.2s1.08.19,1.59.31a11.85,11.85,0,0,1,1.24.34Z"/><path class="cls-2" d="M238.38,27.14v4.32H227.17V62.79h-5V31.46H211V27.14Z"/><path class="cls-2" d="M238,49.47a17,17,0,0,1,1-6.2,12.89,12.89,0,0,1,2.72-4.4,11.08,11.08,0,0,1,3.91-2.62,12.13,12.13,0,0,1,4.53-.88q5.4,0,8.29,3.37T261.33,49v.8a8.12,8.12,0,0,1-.05.9H243A9.8,9.8,0,0,0,245.38,57c1.4,1.44,3.6,2.16,6.58,2.16a17.67,17.67,0,0,0,4.25-.44,14.87,14.87,0,0,0,2.6-.85l.66,4a14,14,0,0,1-3.06,1,21.28,21.28,0,0,1-5,.52,15.66,15.66,0,0,1-6-1.06,11.35,11.35,0,0,1-4.19-2.9,11.83,11.83,0,0,1-2.44-4.4A18.35,18.35,0,0,1,238,49.47Zm18.37-2.63a8.06,8.06,0,0,0-1.62-5.32,5.59,5.59,0,0,0-4.61-2.09,6.3,6.3,0,0,0-2.91.65,6.76,6.76,0,0,0-2.13,1.67,7.6,7.6,0,0,0-1.36,2.37,11.84,11.84,0,0,0-.65,2.72Z"/><path class="cls-2" d="M278.82,63.41a14.52,14.52,0,0,1-5.69-1A11.47,11.47,0,0,1,269,59.5a11.94,11.94,0,0,1-2.5-4.4,18.19,18.19,0,0,1-.82-5.63,17,17,0,0,1,.9-5.66,13.25,13.25,0,0,1,2.55-4.45,11.48,11.48,0,0,1,4-2.94,13.14,13.14,0,0,1,5.33-1.05,20.84,20.84,0,0,1,3.6.31,16.06,16.06,0,0,1,3.45,1l-1.08,4.06a11.28,11.28,0,0,0-2.5-.82,13.77,13.77,0,0,0-3-.31,7.63,7.63,0,0,0-6.15,2.52q-2.13,2.52-2.13,7.36a14.91,14.91,0,0,0,.49,4,8.17,8.17,0,0,0,1.54,3.09,7,7,0,0,0,2.7,2,10.42,10.42,0,0,0,4,.69,15.2,15.2,0,0,0,3.44-.36,12.86,12.86,0,0,0,2.42-.77l.67,4a5,5,0,0,1-1.18.49c-.52.15-1.1.29-1.75.41s-1.35.22-2.09.31A17.5,17.5,0,0,1,278.82,63.41Z"/><path class="cls-2" d="M290.09,62.79V23.69l4.78-.82V36.55a16.4,16.4,0,0,1,2.86-.79,16.23,16.23,0,0,1,3-.29,13.51,13.51,0,0,1,5.29.9,8.26,8.26,0,0,1,3.37,2.52,9.74,9.74,0,0,1,1.78,3.89,22.71,22.71,0,0,1,.51,5v15h-4.78v-14a22.21,22.21,0,0,0-.34-4.22,7.13,7.13,0,0,0-1.1-2.83,4.43,4.43,0,0,0-2.06-1.57,9.18,9.18,0,0,0-3.19-.49,14.59,14.59,0,0,0-1.59.1c-.55.07-1.08.15-1.57.24s-.95.18-1.34.28a6.58,6.58,0,0,0-.85.26V62.79Z"/><path class="cls-2" d="M31,65.49l-.49-2.69c-.06-.35-.13-.69-.22-1a18.49,18.49,0,0,0-10-12.42h0l-.3-.15-.11,0a35,35,0,0,1-16.24-16,34.93,34.93,0,0,1-1-28.82L4.46,0l1.4,4.5A31.38,31.38,0,0,0,19.75,22.1,31.62,31.62,0,0,0,26.1,25l.32.11c1,.34,1.73.58,2,.7a22.13,22.13,0,0,1,12.9,14.67c.11.41.21.82.29,1.24a21.48,21.48,0,0,1,.44,3.59A21.91,21.91,0,0,1,38.64,58l-.07.11a21.73,21.73,0,0,1-4.19,4.79c-.38.33-.78.65-1.19.95ZM21.32,46.05l.4.19A21.89,21.89,0,0,1,33.16,59.4a18.25,18.25,0,0,0,2.6-3.22l.07-.11a18.41,18.41,0,0,0,2.45-6,18.79,18.79,0,0,0,.39-4.61,19.4,19.4,0,0,0-.37-3c-.08-.35-.16-.7-.25-1A18.74,18.74,0,0,0,27.14,29c-.17-.07-.77-.27-1.8-.62l-.3-.1h0A34.41,34.41,0,0,1,18,25,34.79,34.79,0,0,1,4.36,10a31.41,31.41,0,0,0,17,36Z"/><path class="cls-2" d="M12.77,78.57l-.67-2.23a38.62,38.62,0,0,1-1.63-9.7c-.22-5.54.11-9.81,2.45-15.27l.63-1.48,1.51.54c8.3,2.94,12.54,8.14,13.33,16.36l.09,1Zm2.68-24.32c-1.37,3.68-1.77,7-1.56,12.25a35,35,0,0,0,.87,6.56l10.11-6.93C24.05,60.38,21.1,56.64,15.45,54.25Z"/><path class="cls-2" d="M13.08,84.79c-1.25,0-2.89-.72-4.95-2.17-.52-.37-2.09-1.48-2-2.94.11-1.65,1.87-2.74,6.18-5l2.79-1.46.38,2.35c.84,5.29.56,7.77-1,8.82h0A2.45,2.45,0,0,1,13.08,84.79Zm-2.95-5a11.49,11.49,0,0,0,2.36,1.37,12.77,12.77,0,0,0-.06-2.71C11.61,78.94,10.74,79.43,10.13,79.84Z"/><path class="cls-2" d="M45,42.31l-1.8-5.66c-2.88-9-12.87-13.28-13-13.32l-2-.82,1.22-1.74c.22-.32,5.52-7.8,13.25-8.23,3.45-.18,8.75.88,14.4,7.07l.2.22,1.85,1.86-2.43.95c-.3.12-7.48,3.09-10.27,13.91ZM33.56,21.17a28.78,28.78,0,0,1,11,10.27,23.34,23.34,0,0,1,8.74-10.82c-3.41-3.29-6.9-4.86-10.42-4.66h0C38.77,16.19,35.34,19.24,33.56,21.17Z"/><path class="cls-1" d="M98.33,81.88V72h1.31v9.9Z"/><path class="cls-1" d="M101.8,81.88V74.7h1.09v1a2.6,2.6,0,0,1,2.29-1.18,2.69,2.69,0,0,1,1.52.38,1.9,1.9,0,0,1,.74.94,5.19,5.19,0,0,1,.19,1.61v4.41h-1.21V77.52q0-1.92-1.5-1.92c-1.27,0-1.9.78-1.9,2.36v3.92Z"/><path class="cls-1" d="M109.5,81.88V74.7h1.09v1a2.6,2.6,0,0,1,2.29-1.18,2.69,2.69,0,0,1,1.52.38,1.9,1.9,0,0,1,.74.94,5.19,5.19,0,0,1,.19,1.61v4.41h-1.22V77.52c0-1.28-.49-1.92-1.49-1.92-1.27,0-1.9.78-1.9,2.36v3.92Z"/><path class="cls-1" d="M116.74,78.29a3.6,3.6,0,0,1,1-2.88,3.54,3.54,0,0,1,2.34-.87,3.17,3.17,0,0,1,2.45,1,3.82,3.82,0,0,1,.91,2.65,3.9,3.9,0,0,1-1,2.92,3.32,3.32,0,0,1-2.39.93,3,3,0,0,1-2.56-1.1A4.32,4.32,0,0,1,116.74,78.29Zm1.26,0a3.3,3.3,0,0,0,.55,2,1.8,1.8,0,0,0,1.56.75,1.75,1.75,0,0,0,1.58-.8,3.52,3.52,0,0,0,.53-2,3.47,3.47,0,0,0-.51-1.89,1.75,1.75,0,0,0-1.6-.81,1.79,1.79,0,0,0-1.59.78A3.43,3.43,0,0,0,118,78.29Z"/><path class="cls-1" d="M126.89,81.88l-2.73-7.18h1.28L127,79c.17.49.32,1,.45,1.45.1-.35.26-.8.46-1.36l1.59-4.39h1.25L128,81.88Z"/><path class="cls-1" d="M136.5,81A4,4,0,0,1,133.86,82a2.92,2.92,0,0,1-1.73-.5A1.76,1.76,0,0,1,131.4,80a1.89,1.89,0,0,1,.38-1.2,2.12,2.12,0,0,1,.92-.7,5.29,5.29,0,0,1,1.53-.34,11.48,11.48,0,0,0,2.17-.42,3.81,3.81,0,0,0-.09-1,1.11,1.11,0,0,0-.49-.54,2.21,2.21,0,0,0-1.15-.24,2.41,2.41,0,0,0-1.19.26,1.67,1.67,0,0,0-.68,1.11l-1.18-.17c.29-1.47,1.37-2.21,3.23-2.21a3.84,3.84,0,0,1,1.78.33,1.6,1.6,0,0,1,.81.84,4.86,4.86,0,0,1,.19,1.54v3.16a2.94,2.94,0,0,0,.39,1.47h-1.28A2.38,2.38,0,0,1,136.5,81Zm-.1-2.71a8.79,8.79,0,0,1-2,.46,2.46,2.46,0,0,0-1.44.5,1.15,1.15,0,0,0-.27.72c0,.75.49,1.13,1.45,1.13,1.5,0,2.25-.79,2.25-2.36Z"/><path class="cls-1" d="M142.17,80.79l.18,1.08a4.67,4.67,0,0,1-.92.1,2.21,2.21,0,0,1-1-.17,1.12,1.12,0,0,1-.56-.51,4,4,0,0,1-.18-1.51V75.65h-.89v-1h.89V72.93L141,72.2v2.5h1.22v1H141v4.2a1.75,1.75,0,0,0,.12.77c.08.15.27.22.57.22A4.34,4.34,0,0,0,142.17,80.79Z"/><path class="cls-1" d="M143.37,73.37V72h1.21v1.39Zm0,8.51V74.7h1.21v7.18Z"/><path class="cls-1" d="M146,78.29a3.6,3.6,0,0,1,1-2.88,3.54,3.54,0,0,1,2.34-.87,3.19,3.19,0,0,1,2.45,1,3.82,3.82,0,0,1,.91,2.65,3.94,3.94,0,0,1-1,2.92,3.34,3.34,0,0,1-2.39.93,3,3,0,0,1-2.56-1.1A4.32,4.32,0,0,1,146,78.29Zm1.26,0a3.37,3.37,0,0,0,.54,2,1.83,1.83,0,0,0,1.57.75,1.75,1.75,0,0,0,1.58-.8,3.52,3.52,0,0,0,.52-2,3.47,3.47,0,0,0-.5-1.89,1.75,1.75,0,0,0-1.6-.81,1.79,1.79,0,0,0-1.59.78A3.43,3.43,0,0,0,147.24,78.29Z"/><path class="cls-1" d="M154.14,81.88V74.7h1.09v1a2.59,2.59,0,0,1,2.28-1.18,2.65,2.65,0,0,1,1.52.38,1.93,1.93,0,0,1,.75.94,5.51,5.51,0,0,1,.19,1.61v4.41h-1.22V77.52q0-1.92-1.5-1.92c-1.26,0-1.9.78-1.9,2.36v3.92Z"/><path class="cls-1" d="M166.86,81.88V75.65h-1.08v-1h1.08v-.76a3.8,3.8,0,0,1,.13-1.08,1.29,1.29,0,0,1,.59-.75,2.35,2.35,0,0,1,1.26-.3,6,6,0,0,1,1.14.12L169.8,73a3.73,3.73,0,0,0-.72-.07,1.05,1.05,0,0,0-.79.24,1.3,1.3,0,0,0-.22.88v.66h1.4v1h-1.4v6.23Z"/><path class="cls-1" d="M170,78.29a3.57,3.57,0,0,1,1-2.88,3.52,3.52,0,0,1,2.34-.87,3.15,3.15,0,0,1,2.44,1,3.78,3.78,0,0,1,.92,2.65,3.94,3.94,0,0,1-1,2.92,3.34,3.34,0,0,1-2.39.93,3,3,0,0,1-2.56-1.1A4.32,4.32,0,0,1,170,78.29Zm1.25,0a3.37,3.37,0,0,0,.55,2,1.83,1.83,0,0,0,1.57.75,1.76,1.76,0,0,0,1.58-.8,3.52,3.52,0,0,0,.52-2,3.55,3.55,0,0,0-.5-1.89,1.75,1.75,0,0,0-1.6-.81,1.79,1.79,0,0,0-1.59.78A3.43,3.43,0,0,0,171.21,78.29Z"/><path class="cls-1" d="M178.1,81.88V74.7h1.1v1.09c.45-.83,1-1.25,1.55-1.25a2.33,2.33,0,0,1,1.25.4l-.42,1.12a1.78,1.78,0,0,0-.89-.26c-.92,0-1.38.78-1.38,2.32v3.76Z"/><path class="cls-1" d="M192.14,81A4,4,0,0,1,189.5,82a2.92,2.92,0,0,1-1.73-.5A1.76,1.76,0,0,1,187,80a1.89,1.89,0,0,1,.38-1.2,2.12,2.12,0,0,1,.92-.7,5.29,5.29,0,0,1,1.53-.34,11.48,11.48,0,0,0,2.17-.42,3.81,3.81,0,0,0-.09-1,1.06,1.06,0,0,0-.49-.54,2.21,2.21,0,0,0-1.15-.24,2.41,2.41,0,0,0-1.19.26,1.7,1.7,0,0,0-.68,1.11l-1.18-.17c.3-1.47,1.37-2.21,3.23-2.21a3.84,3.84,0,0,1,1.78.33,1.6,1.6,0,0,1,.81.84,4.86,4.86,0,0,1,.19,1.54v3.16a2.94,2.94,0,0,0,.39,1.47h-1.28A2.38,2.38,0,0,1,192.14,81Zm-.1-2.71a8.79,8.79,0,0,1-2,.46,2.46,2.46,0,0,0-1.44.5,1.15,1.15,0,0,0-.27.72c0,.75.49,1.13,1.45,1.13,1.5,0,2.25-.79,2.25-2.36Z"/><path class="cls-1" d="M201,81.88h-1.13V72h1.22v3.53a2.39,2.39,0,0,1,2-1,2.72,2.72,0,0,1,2.21,1,4,4,0,0,1,.82,2.63,4.41,4.41,0,0,1-.83,2.77A2.7,2.7,0,0,1,203,82,2.28,2.28,0,0,1,201,81Zm0-3.64a4.51,4.51,0,0,0,.23,1.63,2.06,2.06,0,0,0,.68.87,1.76,1.76,0,0,0,1,.31,1.63,1.63,0,0,0,1.46-.8,3.68,3.68,0,0,0,.5-2,3.91,3.91,0,0,0-.45-1.93,1.56,1.56,0,0,0-1.45-.82,1.66,1.66,0,0,0-1.44.77A3.37,3.37,0,0,0,201,78.24Z"/><path class="cls-1" d="M212.5,79.57l1.26.16A2.94,2.94,0,0,1,210.6,82a3.77,3.77,0,0,1-1.71-.37,3,3,0,0,1-1.23-1.2,4.21,4.21,0,0,1-.48-2.12,4.9,4.9,0,0,1,.37-1.94,3.14,3.14,0,0,1,1.13-1.36,3.22,3.22,0,0,1,1.85-.51,3,3,0,0,1,1.9.57,3.09,3.09,0,0,1,1.06,1.38,6.25,6.25,0,0,1,.3,2.11h-5.35a2.88,2.88,0,0,0,.64,1.79,2,2,0,0,0,1.53.66A1.93,1.93,0,0,0,212.5,79.57Zm-4-2h4a2.24,2.24,0,0,0-.63-1.55,2,2,0,0,0-2.75,0A2.19,2.19,0,0,0,208.51,77.61Z"/><path class="cls-1" d="M217.94,80.79l.18,1.08a4.67,4.67,0,0,1-.92.1,2.21,2.21,0,0,1-.95-.17,1.12,1.12,0,0,1-.56-.51,4,4,0,0,1-.18-1.51V75.65h-.89v-1h.89V72.93l1.21-.73v2.5h1.22v1h-1.22v4.2a1.75,1.75,0,0,0,.12.77c.08.15.27.22.57.22A4.34,4.34,0,0,0,217.94,80.79Z"/><path class="cls-1" d="M221.79,80.79l.18,1.08a4.67,4.67,0,0,1-.92.1,2.21,2.21,0,0,1-1-.17,1.12,1.12,0,0,1-.56-.51,4,4,0,0,1-.18-1.51V75.65h-.9v-1h.9V72.93l1.21-.73v2.5h1.22v1h-1.22v4.2a1.75,1.75,0,0,0,.12.77c.08.15.27.22.56.22A4.31,4.31,0,0,0,221.79,80.79Z"/><path class="cls-1" d="M227.9,79.57l1.25.16A2.94,2.94,0,0,1,226,82a3.77,3.77,0,0,1-1.71-.37,3,3,0,0,1-1.23-1.2,4.21,4.21,0,0,1-.48-2.12,4.73,4.73,0,0,1,.38-1.94,3,3,0,0,1,1.12-1.36,3.25,3.25,0,0,1,1.86-.51,3,3,0,0,1,1.9.57,3.14,3.14,0,0,1,1,1.38,6.23,6.23,0,0,1,.31,2.11h-5.36a2.89,2.89,0,0,0,.65,1.79,1.91,1.91,0,0,0,1.52.66A1.94,1.94,0,0,0,227.9,79.57Zm-4-2h4a2.34,2.34,0,0,0-.63-1.55,2,2,0,0,0-2.76,0A2.24,2.24,0,0,0,223.9,77.61Z"/><path class="cls-1" d="M230.66,81.88V74.7h1.1v1.09c.46-.83,1-1.25,1.56-1.25a2.3,2.3,0,0,1,1.24.4l-.41,1.12a1.82,1.82,0,0,0-.9-.26c-.91,0-1.37.78-1.37,2.32v3.76Z"/><path class="cls-1" d="M238.48,84.67l.22-1a2.8,2.8,0,0,0,.58.1.6.6,0,0,0,.58-.3,2.86,2.86,0,0,0,.16-1.18V74.7h1.21v7.57a3.91,3.91,0,0,1-.36,1.89,1.51,1.51,0,0,1-1.44.63A3.69,3.69,0,0,1,238.48,84.67ZM240,73.39V72h1.21v1.41Z"/><path class="cls-1" d="M242.64,78.29a3.6,3.6,0,0,1,1-2.88,3.54,3.54,0,0,1,2.34-.87,3.17,3.17,0,0,1,2.45,1,3.82,3.82,0,0,1,.91,2.65,3.94,3.94,0,0,1-1,2.92A3.32,3.32,0,0,1,246,82a3,3,0,0,1-2.56-1.1A4.32,4.32,0,0,1,242.64,78.29Zm1.26,0a3.3,3.3,0,0,0,.55,2,1.8,1.8,0,0,0,1.56.75,1.75,1.75,0,0,0,1.58-.8,3.52,3.52,0,0,0,.53-2,3.47,3.47,0,0,0-.51-1.89,1.75,1.75,0,0,0-1.6-.81,1.79,1.79,0,0,0-1.59.78A3.43,3.43,0,0,0,243.9,78.29Z"/><path class="cls-1" d="M255.5,81.88v-1A2.63,2.63,0,0,1,253.22,82a2.66,2.66,0,0,1-1.51-.38,2,2,0,0,1-.75-1,5,5,0,0,1-.19-1.56V74.7H252v4a8.4,8.4,0,0,0,.07,1.3,1.13,1.13,0,0,0,.43.72,1.44,1.44,0,0,0,1,.29,1.82,1.82,0,0,0,1.4-.53,2.75,2.75,0,0,0,.51-1.91V74.7h1.22v7.18Z"/><path class="cls-1" d="M258.48,81.88V74.7h1.1v1.09c.46-.83,1-1.25,1.55-1.25a2.3,2.3,0,0,1,1.25.4L262,76.06a1.76,1.76,0,0,0-.89-.26c-.92,0-1.37.78-1.37,2.32v3.76Z"/><path class="cls-1" d="M263.11,81.88V74.7h1.09v1a2.59,2.59,0,0,1,2.28-1.18,2.65,2.65,0,0,1,1.52.38,1.93,1.93,0,0,1,.75.94,5.51,5.51,0,0,1,.19,1.61v4.41h-1.22V77.52c0-1.28-.5-1.92-1.49-1.92-1.27,0-1.91.78-1.91,2.36v3.92Z"/><path class="cls-1" d="M275.72,79.57l1.25.16A2.92,2.92,0,0,1,273.82,82a3.78,3.78,0,0,1-1.72-.37,3,3,0,0,1-1.22-1.2,4.21,4.21,0,0,1-.48-2.12,4.73,4.73,0,0,1,.37-1.94,3.07,3.07,0,0,1,1.13-1.36,3.22,3.22,0,0,1,1.85-.51,3,3,0,0,1,1.9.57,3,3,0,0,1,1.05,1.38A6,6,0,0,1,277,78.6h-5.35a2.82,2.82,0,0,0,.64,1.79,1.92,1.92,0,0,0,1.53.66A1.94,1.94,0,0,0,275.72,79.57Zm-4-2h4a2.34,2.34,0,0,0-.63-1.55,1.89,1.89,0,0,0-1.34-.52,1.92,1.92,0,0,0-1.42.57A2.28,2.28,0,0,0,271.72,77.61Z"/><path class="cls-1" d="M278.45,84.65l-.14-1.15a2.86,2.86,0,0,0,.7.11,1.16,1.16,0,0,0,.85-.27,4.58,4.58,0,0,0,.65-1.39l0,0-2.72-7.2h1.31l1.5,4.16c.21.58.38,1.14.52,1.67a14,14,0,0,1,.5-1.64l1.53-4.19h1.22L281.66,82a8.59,8.59,0,0,1-1.09,2.2,1.64,1.64,0,0,1-1.34.58A2.39,2.39,0,0,1,278.45,84.65Z"/></g></g></svg>