<svg xmlns="http://www.w3.org/2000/svg" viewBox="0 0 107.18 61.75"><defs><style>.cls-1{fill:#0a99d6;stroke:#fff;stroke-miterlimit:10;stroke-width:7px;}.cls-2{fill:none;stroke:#11235b;stroke-linecap:round;stroke-linejoin:round;stroke-width:3.3px;}</style></defs><g id="Layer_2" data-name="Layer 2"><g id="BACKGROUND_1" data-name="BACKGROUND 1"><path class="cls-1" d="M94.16,33.87a15.49,15.49,0,0,0,.27-2.82,15,15,0,0,0-21.74-13.4,23.2,23.2,0,0,0-1-2.23,43.33,43.33,0,0,1-11,18.82A43.21,43.21,0,0,1,5.11,38.92,10.75,10.75,0,0,0,3.5,44.6v2.84A10.81,10.81,0,0,0,14.31,58.25H92.87a10.81,10.81,0,0,0,10.81-10.81V44.6A10.81,10.81,0,0,0,94.16,33.87Z"/><path class="cls-2" d="M94.16,33.87a15.49,15.49,0,0,0,.27-2.82,15,15,0,0,0-21.74-13.4A24.9,24.9,0,0,0,24.92,22.2h-.24A11.93,11.93,0,0,0,12.75,33.9,10.81,10.81,0,0,0,3.5,44.6v2.84A10.81,10.81,0,0,0,14.31,58.25H92.87a10.81,10.81,0,0,0,10.81-10.81V44.6A10.81,10.81,0,0,0,94.16,33.87Z"/></g></g></svg>