<svg xmlns="http://www.w3.org/2000/svg" viewBox="0 0 71.88 60"><defs><style>.cls-1{fill:#11235b;}.cls-2{fill:#ff7419;}.cls-3{fill:#0a99d6;}.cls-4{fill:#fff;}</style></defs><g id="Layer_2" data-name="Layer 2"><g id="BACKGROUND_1" data-name="BACKGROUND 1"><path class="cls-1" d="M68.61,34.3H65.42c0-.26,0-.53,0-.79l3.19-.08C68.6,33.72,68.61,34,68.61,34.3Zm-65.42,0H0C0,33.19.05,32.07.16,31l3.17.31C3.24,32.28,3.19,33.3,3.19,34.3Zm62-3.81a30.1,30.1,0,0,0-.51-3l3.11-.69a33.23,33.23,0,0,1,.56,3.29ZM3.77,28.28.64,27.67c.22-1.09.49-2.18.8-3.25l3.06.92A30,30,0,0,0,3.77,28.28Zm60.1-3.7a29.21,29.21,0,0,0-1.08-2.82l2.91-1.29a32.86,32.86,0,0,1,1.2,3.12ZM5.51,22.49,2.56,21.27c.42-1,.9-2,1.42-3l2.82,1.5A28.46,28.46,0,0,0,5.51,22.49Zm55.92-3.44a29.84,29.84,0,0,0-1.61-2.57l2.61-1.82c.63.91,1.23,1.86,1.78,2.82ZM8.34,17.14,5.69,15.38a32.65,32.65,0,0,1,2-2.69l2.47,2C9.51,15.48,8.9,16.3,8.34,17.14ZM58,14.09a28.92,28.92,0,0,0-2.08-2.21l2.21-2.29A32.88,32.88,0,0,1,60.38,12Zm-45.8-1.65L9.89,10.2c.79-.79,1.61-1.55,2.46-2.26l2,2.45C13.62,11,12.87,11.72,12.16,12.44ZM53.6,9.89c-.79-.62-1.62-1.22-2.46-1.76l1.72-2.68c.93.6,1.85,1.25,2.72,1.94ZM16.81,8.57,15,5.93a33.38,33.38,0,0,1,2.85-1.74L19.39,7A30.24,30.24,0,0,0,16.81,8.57Zm31.7-2a29.84,29.84,0,0,0-2.76-1.25l1.18-3c1,.41,2,.87,3,1.38Zm-26.39-1L20.87,2.73c1-.44,2.08-.82,3.13-1.16l1,3C24,4.91,23.05,5.27,22.12,5.66ZM42.89,4.39a30,30,0,0,0-3-.69L40.51.56c1.1.2,2.19.46,3.26.76Zm-15-.54L27.24.73C28.32.5,29.43.33,30.54.2l.34,3.17A30,30,0,0,0,27.89,3.85Zm9-.55c-.87-.08-1.76-.11-2.64-.11h-.39l0-3.19h.43c1,0,1.94,0,2.9.12Z"/><polygon class="cls-1" points="67.02 39.17 62.15 34.3 71.88 34.3 67.02 39.17"/><path class="cls-2" d="M51.35,17.26a24.11,24.11,0,0,1,0,34.09L34.3,34.3Z"/><path class="cls-3" d="M51.35,17.26,34.3,34.3V10.2A24.06,24.06,0,0,1,51.35,17.26Z"/><path class="cls-4" d="M34.3,34.3,51.35,51.35a24.11,24.11,0,0,1-34.09,0Z"/><path class="cls-4" d="M34.3,10.2V34.3l-17,17.05a24.11,24.11,0,0,1,17-41.15Z"/><path class="cls-1" d="M34.3,60A25.7,25.7,0,1,1,52.47,16.13h0A25.7,25.7,0,0,1,34.3,60Zm0-48.2a22.5,22.5,0,1,0,15.92,6.59h0A22.39,22.39,0,0,0,34.3,11.8Z"/><polygon class="cls-1" points="50.39 52.65 32.71 34.96 32.71 10.2 35.9 10.2 35.9 33.65 52.65 50.4 50.39 52.65"/><polygon class="cls-1" points="18.22 52.65 15.96 50.4 50.39 15.96 52.65 18.21 18.22 52.65"/></g></g></svg>