<svg xmlns="http://www.w3.org/2000/svg" viewBox="0 0 39.2 60"><defs><style>.cls-1,.cls-4{fill:#fff;}.cls-2{fill:#11235b;}.cls-3{fill:#0a99d6;}.cls-4{font-size:13.8px;font-family:MyriadPro-Bold, Myriad Pro;font-weight:700;}</style></defs><g id="Layer_2" data-name="Layer 2"><g id="BACKGROUND_1" data-name="BACKGROUND 1"><rect class="cls-1" x="1.77" y="1.77" width="35.66" height="56.47" rx="2.97"/><path class="cls-2" d="M34.46,60H4.74A4.75,4.75,0,0,1,0,55.26V4.74A4.75,4.75,0,0,1,4.74,0H34.46A4.75,4.75,0,0,1,39.2,4.74V55.26A4.75,4.75,0,0,1,34.46,60ZM4.74,3.53A1.22,1.22,0,0,0,3.53,4.74V55.26a1.22,1.22,0,0,0,1.21,1.21H34.46a1.21,1.21,0,0,0,1.2-1.21V4.74a1.21,1.21,0,0,0-1.2-1.21Z"/><rect class="cls-3" x="-1.95" y="11.43" width="43.09" height="29.72" transform="translate(45.88 6.69) rotate(90)"/><path class="cls-2" d="M22.57,52.29a3,3,0,1,1-3-3A3,3,0,0,1,22.57,52.29Z"/><text class="cls-4" transform="translate(5.92 31)">&gt;/&lt;</text></g></g></svg>