<svg xmlns="http://www.w3.org/2000/svg" viewBox="0 0 29.89 60"><defs><style>.cls-1{fill:#fff;}.cls-2{fill:#11235b;}.cls-3{fill:#0a99d6;}.cls-4{fill:#ff7419;}</style></defs><g id="Layer_2" data-name="Layer 2"><g id="BACKGROUND_1" data-name="BACKGROUND 1"><circle class="cls-1" cx="14.94" cy="14.94" r="13.55"/><path class="cls-2" d="M14.94,29.89a14.95,14.95,0,1,1,15-14.95A15,15,0,0,1,14.94,29.89Zm0-27.1A12.16,12.16,0,1,0,27.1,14.94,12.16,12.16,0,0,0,14.94,2.79Z"/><circle class="cls-3" cx="14.94" cy="14.94" r="10.54" transform="translate(-4.55 6.78) rotate(-22.27)"/><path class="cls-2" d="M18,60h-6a1.39,1.39,0,0,1-1.39-1.39V40.54a1.39,1.39,0,0,1,1.39-1.39h6a1.39,1.39,0,0,1,1.39,1.39V58.61A1.39,1.39,0,0,1,18,60Zm-4.63-2.79h3.23V41.93H13.33Z"/><rect class="cls-2" x="13.55" y="28.49" width="2.79" height="12.04"/><rect class="cls-4" x="13.44" y="42.05" width="1.51" height="15.06"/><rect class="cls-1" x="14.94" y="42.05" width="1.51" height="15.06"/></g></g></svg>