<svg xmlns="http://www.w3.org/2000/svg" viewBox="0 0 78.52 60"><defs><style>.cls-1{fill:#fff;}.cls-2{fill:#ff7419;}.cls-3{fill:#0a99d6;}.cls-4{fill:#11235b;}</style></defs><g id="Layer_2" data-name="Layer 2"><g id="BACKGROUND_1" data-name="BACKGROUND 1"><path class="cls-1" d="M64.36,47.6l-40.92-13V14.81l40.92-13a2,2,0,0,1,2.57,1.89v42A2,2,0,0,1,64.36,47.6Z"/><polygon class="cls-1" points="25.42 58.3 17.51 58.3 11.58 34.58 19.49 34.58 25.42 58.3"/><path class="cls-2" d="M66.93,34.58a9.89,9.89,0,1,0,0-19.77Z"/><path class="cls-3" d="M23.44,14.81H11.58A9.88,9.88,0,0,0,1.7,24.7h0a9.88,9.88,0,0,0,9.88,9.88H23.44Z"/><path class="cls-1" d="M11.58,14.81A9.9,9.9,0,0,0,2.15,27.66a9.89,9.89,0,0,1,9.43-6.92H23.44V14.81Z"/><path class="cls-4" d="M65,49.39a4,4,0,0,1-1.13-.17h0L21.75,35.82V13.57L63.84.18a3.66,3.66,0,0,1,4.79,3.5v42A3.67,3.67,0,0,1,65,49.39ZM64.87,46a.29.29,0,0,0,.37-.26v-42a.27.27,0,0,0-.12-.23.28.28,0,0,0-.25,0L25.14,16.05V33.34Z"/><path class="cls-4" d="M25.14,36.28H11.58a11.58,11.58,0,0,1,0-23.16H25.14ZM11.58,16.51a8.19,8.19,0,1,0,0,16.37H21.75V16.51Z"/><path class="cls-4" d="M66.93,36.28H65.24V13.12h1.69a11.58,11.58,0,1,1,0,23.16Zm1.7-19.59v16a8.19,8.19,0,0,0,0-16Z"/><path class="cls-4" d="M25.42,60H17.51a1.68,1.68,0,0,1-1.64-1.28L9.94,35a1.68,1.68,0,0,1,.3-1.45,1.73,1.73,0,0,1,1.34-.66h7.91a1.7,1.7,0,0,1,1.65,1.29l5.93,23.72a1.73,1.73,0,0,1-.31,1.46A1.71,1.71,0,0,1,25.42,60Zm-6.58-3.39h4.41L18.16,36.28H13.75Z"/></g></g></svg>