<svg xmlns="http://www.w3.org/2000/svg" viewBox="0 0 197.13 56.64"><defs><style>.cls-1{fill:#6f2c91;}.cls-2{fill:#8dc63f;}.cls-3,.cls-8{fill:#fcaf17;}.cls-4{fill:#ed1c24;}.cls-5{fill:#f04e45;}.cls-6{fill:#a3238e;}.cls-7{fill:#008fd5;}.cls-10,.cls-8{fill-rule:evenodd;}.cls-10,.cls-9{fill:#580202;}</style></defs><g id="Layer_2" data-name="Layer 2"><g id="Layer_1-2" data-name="Layer 1"><path class="cls-1" d="M39.16,14.59c1.14-1,2-11.6,2.28-13.85,0-.62-1.16-.67-1.57-.7s-1.6-.18-1.65.46c-.1,1.44.18,14,.94,14.09"/><path class="cls-2" d="M22.59,21.41c-.38-1.23-8.53-6.11-10.21-7.11-.47-.26-1,.89-1.19,1.19s-.81,1.39-.33,1.64c1.16.63,11.34,5.05,11.73,4.28"/><path class="cls-3" d="M21.58,31.39c-.91-.74-9.16-1.11-11.09-1.15-.43,0-.39,1.42-.4,1.63s-.08,1.61.36,1.6c1.3,0,11.15-1.43,11.13-2.08"/><path class="cls-4" d="M55.67,23.88c1,1,10.42-3.31,12.4-4,.62-.24.18-1.31,0-1.73s-.51-1.53-1.18-1.27c-1.66.7-10.95,5.69-11.24,7"/><path class="cls-5" d="M58.11,33.76C58,34.84,68,36.53,69.21,36.64c.63.06.7-1.13.74-1.54s.21-1.6-.42-1.66c-1.16-.12-11.29-.49-11.42.32"/><path class="cls-6" d="M50.52,16.73c.68.29,5.68-8.57,6.16-9.65.25-.55-.89-1-1.24-1.16s-1.45-.7-1.7-.16c-.49,1.09-4,10.62-3.22,11"/><path class="cls-7" d="M29.14,14.46c.9-1.11-3.27-8.8-4-10.22-.38-.65-1.31-.07-1.76.19s-1.41.77-1,1.41c.73,1.19,5.47,9.47,6.82,8.62"/><path class="cls-7" d="M45.85,50.64l-.38.09a37.27,37.27,0,0,1-5.83.94c-6.41.36-9.77-1.65-15.5-3.85a39.4,39.4,0,0,0-12.33-2.35,14.79,14.79,0,0,1-2.37-.11c-.12-.34,2.16-.6,2.28-.67,4-.73,9.16.2,13,1.2,5.6,1.69,8.64,3.32,14.68,2.88a34.66,34.66,0,0,0,5.35-.86l.39-.1A79.74,79.74,0,0,1,59.24,45.6a44.22,44.22,0,0,1,13.6,2.17c.45.14,4.2,1.34,4.24,1.92a37,37,0,0,1-4.5-.85,50.32,50.32,0,0,0-13.18-1,117.65,117.65,0,0,0-13.55,2.83m-19.5.92,1.45.52c1,.37,2,.69,3.09,1a23.07,23.07,0,0,0,10.45.71c4.49-.78,7.38-1.73,12.1-1.53.35,0,2.73.31,2.84.72a21.34,21.34,0,0,1-2.84.23c-4.57.43-7.37,1.64-11.66,2.74a22.81,22.81,0,0,1-11.63-.06c-1.15-.3-2.23-.65-3.34-1l-1.44-.51a116.9,116.9,0,0,0-12.08-4,32.16,32.16,0,0,0-9.22-1.19c-.44,0-3.93.39-4.07.27.15-.53,3.44-1.3,3.94-1.41a29.69,29.69,0,0,1,9.73.26A72.11,72.11,0,0,1,26.35,51.56Z"/><path class="cls-8" d="M27.49,36.81a12.79,12.79,0,0,0,4.73,5.31,13.22,13.22,0,0,0,2.6.91,14.78,14.78,0,0,0,8.67-.69,11.46,11.46,0,0,0,4.21-2.71,11.14,11.14,0,0,0,2.54-4,11.69,11.69,0,0,0,.69-4.69,12.62,12.62,0,0,0-1.26-4.81A10.42,10.42,0,0,0,44.32,21a10,10,0,0,0-2.62-.72A10.13,10.13,0,0,1,49,26.42,12,12,0,0,1,49.89,31,10.7,10.7,0,0,1,49,35.14a10.17,10.17,0,0,1-2.36,3.43A10.36,10.36,0,0,1,43,40.84a14.47,14.47,0,0,1-7.79.71,12.92,12.92,0,0,1-6.25-3.23,16.78,16.78,0,0,1-1.44-1.51M39.05,18.49c-14.34,0-16.7,19.09-3.71,22.39a13.41,13.41,0,0,0,7.47-.53,9.72,9.72,0,0,0,3.55-2.11A9.52,9.52,0,0,0,48.64,35a10.24,10.24,0,0,0,.82-4,11.36,11.36,0,0,0-.86-4.38A9.52,9.52,0,0,0,44,21.64a9.16,9.16,0,0,0-3.24-1,8.42,8.42,0,0,0-3.42.31,7.92,7.92,0,0,0-3,1.64h0a7.93,7.93,0,0,0-1.78,2.71,10.23,10.23,0,0,0-.35,1.11,7.59,7.59,0,0,1,.43-1.08,7.56,7.56,0,0,1,4.81-4,8,8,0,0,1,3.26-.21,8.85,8.85,0,0,1,3,1A9,9,0,0,1,48,26.88a10.83,10.83,0,0,1,.7,4.1,9.44,9.44,0,0,1-.82,3.67,8.92,8.92,0,0,1-5.33,4.81,12.93,12.93,0,0,1-6.94.53,10.93,10.93,0,0,1-3.68-1.53A9,9,0,0,1,30.35,37c-.6-.8-1.89-2.88-1.63-4a12.35,12.35,0,0,0,2.39,3.26,9.85,9.85,0,0,0,4.72,2.63,11.53,11.53,0,0,0,6.32-.41A7.93,7.93,0,0,0,45,36.84a7.85,7.85,0,0,0,1.9-2.56A8.44,8.44,0,0,0,47.7,31a9.6,9.6,0,0,0-.61-3.75A8.16,8.16,0,0,0,40.7,22a7.14,7.14,0,0,0-2.91.14,6.85,6.85,0,0,0-2.57,1.29,6.69,6.69,0,0,0-1.77,2.22,7.36,7.36,0,0,0-.77,2.91,8.3,8.3,0,0,0,.48,3.31,6.4,6.4,0,0,0,3,3.48,6.26,6.26,0,0,0,2.23.75A6,6,0,0,0,40.8,36h0a5.46,5.46,0,0,0,3.44-3.06,5.81,5.81,0,0,0,.46-2.36A6.15,6.15,0,0,0,44.18,28a3.65,3.65,0,0,0-1.46-1.65A3.78,3.78,0,0,1,44.32,28a6.35,6.35,0,0,1,.73,2.55,6,6,0,0,1-.38,2.52,5.71,5.71,0,0,1-1.39,2.13,6,6,0,0,1-1.59,1.1,5.37,5.37,0,0,1-.7.25,6.47,6.47,0,0,1-2.66.23A7,7,0,0,1,35.86,36a7.1,7.1,0,0,1-3.38-3.81,8.2,8.2,0,0,1-.3-1,9.34,9.34,0,0,1-.44-2.62,7.71,7.71,0,0,1,.06-1.18,7,7,0,0,0-.11,1.18,9.32,9.32,0,0,0,.65,3.65,7.36,7.36,0,0,0,6,4.61,6.65,6.65,0,0,0,2.7-.24,6.29,6.29,0,0,0,2.37-1.32A6.21,6.21,0,0,0,45,33.17a6.56,6.56,0,0,0,.59-2.65A7.31,7.31,0,0,0,45,27.67a4.84,4.84,0,0,0-2.33-2.53A5.11,5.11,0,0,0,41,24.65a4.73,4.73,0,0,0-1.83.19,4.41,4.41,0,0,0-1.61.93,4.29,4.29,0,0,0-1.06,1.47A4.46,4.46,0,0,0,36.15,29a4.84,4.84,0,0,0,.36,1.88A4.88,4.88,0,0,1,36.1,29a4.62,4.62,0,0,1,.33-1.84,4.52,4.52,0,0,1,2.71-2.54,4.72,4.72,0,0,1,1.9-.24,4.9,4.9,0,0,1,1.77.48,5.07,5.07,0,0,1,2.53,2.63,7.46,7.46,0,0,1,.61,3,7.05,7.05,0,0,1-.57,2.83,6.73,6.73,0,0,1-4.19,3.76,7.12,7.12,0,0,1-2.9.3,7.78,7.78,0,0,1-2.71-.8,7.87,7.87,0,0,1-3.77-4.12,10.09,10.09,0,0,1-.7-3.87,9.08,9.08,0,0,1,.81-3.56A8.44,8.44,0,0,1,34,22.21a8.56,8.56,0,0,1,3.17-1.74,9,9,0,0,1,3.23-.35,2.55,2.55,0,0,1,.4,0,9.77,9.77,0,0,1,3.48.89,10.32,10.32,0,0,1,5.17,5.18A12.53,12.53,0,0,1,50.61,31a11.66,11.66,0,0,1-.74,4.53,11.08,11.08,0,0,1-2.46,3.85,11.35,11.35,0,0,1-4,2.65,15.75,15.75,0,0,1-8.53,1,16.88,16.88,0,0,1-2.39-.67,12.8,12.8,0,1,0,6.6-23.78Z"/><path class="cls-7" d="M139.3,23.39h-7.07c-4.72,0-50.22.27-50.22.56s45.5.55,50.22.55h7.07c4.73,0,50.23-.26,50.23-.55s-45.5-.56-50.23-.56"/><path class="cls-9" d="M178.33,39.26h1.79v-10c0-1.49-.79-2.24-2.39-2.3v.88c.53.11.61.43.61,1.1,0,.23,0,.51,0,.84ZM165,34.71h-2.63a4.84,4.84,0,0,1,.07-.74h0a2.1,2.1,0,0,1,2.14-1.4H165Zm.29-5.77-1.44-1.41-1.44,1.41,1.44,1.45Zm-5.91,8.52a1.66,1.66,0,0,1-1.62-1.73V30a12.89,12.89,0,0,1,.07-1.53c0-.2.18-.34.55-.37v-1c-1.47.05-2.43.64-2.43,2.2v6.42a3.63,3.63,0,0,0,3.43,3.53H164a3.25,3.25,0,0,0,2.85-3.15V30.82h-2.21a4,4,0,0,0-4.1,3.63v2.06H165a1.5,1.5,0,0,1-1.09,1Zm-4.81-6.6h-2.18a4.15,4.15,0,0,0-4.09,3.61v2.05h4.46V37a1.67,1.67,0,0,1-1.6,1.73h-3.42A1.57,1.57,0,0,1,146.19,37V35.4c0-1.7-1-2.2-2.46-2.2v.9c.65,0,.66.8.66,1.62V37.1a3.41,3.41,0,0,0,3.37,3.46h3.44a3.52,3.52,0,0,0,3.39-3.46Zm-1.74,3.89h-2.71a2.13,2.13,0,0,1,2.28-2.12h.43Zm.9-5.8-1.42-1.42L150.9,29l1.43,1.41Zm-2.83,0-1.44-1.42L148.06,29l1.42,1.41ZM140,39.26h1.79v-10c0-1.49-.78-2.24-2.39-2.3v.88c.54.11.61.43.61,1.1,0,.23,0,.51,0,.84Zm-14.74,0h9.64a3.26,3.26,0,0,0,2.19-1.12h0a3.68,3.68,0,0,0,1-2.47V29.14c0-1.6-1-2.19-2.41-2.24v.94c.63.05.63.91.63,1.78v6.05a1.65,1.65,0,0,1-1.58,1.79h-5.59A1.56,1.56,0,0,1,127.45,36a1.59,1.59,0,0,1,1.76-1.53h2.46c1.41,0,2.14-.9,2.15-2.43h-.95c-.06.66-.9.65-1.74.65h-2.07A3.4,3.4,0,0,0,125.73,36a2.91,2.91,0,0,0,.37,1.51h-3.42V32H120.9v6.83c0,3.23-1.92,5.32-4.15,5.32a3.46,3.46,0,0,1-1.41-.41l-.52.9a6.71,6.71,0,0,0,2.38.55,5,5,0,0,0,3.85-1.76h0a6.2,6.2,0,0,0,1.63-4.2Zm-10,2L114,40l-1.19,1.19L114,42.37Zm-7.32,1.6-1.42-1.4L107.89,40l1.42,1.44Zm-2.86,0-1.42-1.4L105,40l1.44,1.44Zm71.37-14c0-1.59-1-2.18-2.43-2.24v.89c.59.11.61.92.64,1.91v6.16a1.78,1.78,0,0,1-1.62,1.9h-.76V32.79c0-1.59-1-2.2-2.47-2.26v.84c.61.13.68,1,.68,1.92v4.17h-3v1.8H173a3.7,3.7,0,0,0,3.41-3.7Zm-3.56-2.22c-.09.63-.78.64-1.49.64h-2.62c-1.11,0-1.51.76-1.51,2h.47c.05-.63.75-.63,1.45-.63h2.62c1.13,0,1.52-.76,1.59-2ZM110.75,37.46h-1.93a1.49,1.49,0,0,1-1.41-1.5V32.53h-1.79V35.6a1.69,1.69,0,0,1-1.49,1.86h-2.08a1.75,1.75,0,0,1-1.47-1.29V33.66c0-.83,0-1.64.62-1.72v-.88a4.57,4.57,0,0,0-1.4.25H97.53v.14a4.81,4.81,0,0,1,0,7.57v.25a3.11,3.11,0,0,0,2.19-.94,3.41,3.41,0,0,0,2.37.92h2.06a3.51,3.51,0,0,0,2.31-1.07,3,3,0,0,0,2.33,1.07h4.52a3.33,3.33,0,0,0,3.43-3.33v-.47c0-.93,0-1.75.67-1.88v-.84c-1.38.07-2.47.69-2.47,2.16v1a1.53,1.53,0,0,1-1.63,1.62Z"/><path class="cls-10" d="M81.68,15.11l-1.07,2.47h2.13Zm8.85,1.62a2,2,0,0,0,1.32-.32,1.26,1.26,0,0,0,.36-1,1.08,1.08,0,0,0-.37-.94,2.33,2.33,0,0,0-1.28-.26H89.14v2.52Zm3.61-1.33A2.51,2.51,0,0,1,92.52,18l2.15,3H92.34l-1.89-2.71H89.14v2.71H87.25v-8.5h3.22a4.56,4.56,0,0,1,2.82.67A2.56,2.56,0,0,1,94.14,15.4Zm5.43-.29L98.5,17.58h2.13Zm2.57,6-.79-1.84H97.79L97,21.08H95l3.67-8.5h1.83l3.68,8.5Zm4.9-1.61h1.3a2.78,2.78,0,0,0,1.22-.2.79.79,0,0,0,.41-.79.76.76,0,0,0-.43-.77,3.62,3.62,0,0,0-1.38-.19H107ZM107,16h.9a3,3,0,0,0,1.17-.17.7.7,0,0,0,.38-.73.75.75,0,0,0-.35-.75,2.8,2.8,0,0,0-1.19-.18H107Zm1.82,5.06h-3.72v-8.5h3.31a4.74,4.74,0,0,1,1.49.21,2.14,2.14,0,0,1,.94.56,2.2,2.2,0,0,1,.57,1.48,1.72,1.72,0,0,1-.64,1.48,2.13,2.13,0,0,1-.31.22l-.3.14a2.23,2.23,0,0,1,1.26.71,2,2,0,0,1,.46,1.34,2.3,2.3,0,0,1-.6,1.57A3.17,3.17,0,0,1,108.86,21.08Zm4.66-8.5h1.89v8.5h-1.89ZM121,15.11l-1.07,2.47h2.13Zm2.57,6-.79-1.84h-3.56l-.79,1.84h-2l3.67-8.5h1.84l3.67,8.5Zm22.62-1.17a4.64,4.64,0,0,1-6.34,0,4.21,4.21,0,0,1-1.29-3.13,4.18,4.18,0,0,1,1.29-3.13,4.62,4.62,0,0,1,6.34,0,4.18,4.18,0,0,1,1.29,3.13A4.21,4.21,0,0,1,146.18,19.91Zm-.64-3.13a2.77,2.77,0,0,0-.73-1.94,2.41,2.41,0,0,0-3.59,0,2.82,2.82,0,0,0-.73,1.94,2.77,2.77,0,0,0,.73,1.93,2.41,2.41,0,0,0,3.59,0A2.73,2.73,0,0,0,145.54,16.78Zm6.82-.05a2,2,0,0,0,1.32-.32,1.26,1.26,0,0,0,.36-1,1.05,1.05,0,0,0-.37-.94,2.31,2.31,0,0,0-1.27-.26H151v2.52ZM156,15.4A2.51,2.51,0,0,1,154.35,18l2.15,3h-2.33l-1.88-2.71H151v2.71h-1.89v-8.5h3.22a4.56,4.56,0,0,1,2.82.67A2.56,2.56,0,0,1,156,15.4Zm1.94-2.82h1.9v8.5h-1.9Zm-22.86,0h1.89v8.5h-1.89V17.74h-3.38v3.34h-1.9v-8.5h1.9v3.55h3.38Zm58.68,1.47a1.14,1.14,0,0,0-.75.23.74.74,0,0,0-.28.59.68.68,0,0,0,.34.59,6,6,0,0,0,1.54.52,4.4,4.4,0,0,1,1.88.89,2.2,2.2,0,0,1,.67,1.74,2.32,2.32,0,0,1-.86,1.86,3.43,3.43,0,0,1-2.25.71,5.22,5.22,0,0,1-3.64-1.5l1.13-1.38a4.05,4.05,0,0,0,2.54,1.2,1.31,1.31,0,0,0,.82-.23.71.71,0,0,0,.3-.6.7.7,0,0,0-.31-.61,4.26,4.26,0,0,0-1.26-.46,5.4,5.4,0,0,1-2.17-.92,2.16,2.16,0,0,1-.68-1.77,2.21,2.21,0,0,1,.87-1.87,3.54,3.54,0,0,1,2.17-.65,5.11,5.11,0,0,1,1.7.29,4.37,4.37,0,0,1,1.48.83l-1,1.38A3.74,3.74,0,0,0,193.73,14.05Zm-25.24,5.38H164l4.43-5.54V12.58h-6.89v1.64h4.31l-4.45,5.56v1.3h7.07ZM187,12.58h1.9v8.5H187L183,15.75v5.33h-1.89v-8.5h1.77L187,18.05ZM84.24,21.08l-.79-1.84H79.89l-.79,1.84h-2l3.67-8.5h1.84l3.67,8.5Z"/><path class="cls-8" d="M169.84,19a5.48,5.48,0,0,0,2,2.2,5.83,5.83,0,0,0,1.07.37,6.12,6.12,0,0,0,3.59-.28,4.67,4.67,0,0,0,2.79-2.78,5.08,5.08,0,0,0,.29-1.94,5.48,5.48,0,0,0-.52-2,4.31,4.31,0,0,0-2.22-2.11,4.44,4.44,0,0,0-1.08-.3,4.85,4.85,0,0,1,1.05.37,4.2,4.2,0,0,1,2,2.16,4.84,4.84,0,0,1,.36,1.88,4.28,4.28,0,0,1-.35,1.73,4.08,4.08,0,0,1-1,1.42,4.47,4.47,0,0,1-1.53.93A5.94,5.94,0,0,1,173,21a5.35,5.35,0,0,1-2.58-1.34,7,7,0,0,1-.6-.62m4.78-7.58c-5.93,0-6.9,7.9-1.53,9.26a5.52,5.52,0,0,0,3.09-.21,4.24,4.24,0,0,0,1.47-.88,4.1,4.1,0,0,0,.94-1.35,4.48,4.48,0,0,0,.34-1.66,4.63,4.63,0,0,0-.36-1.8,3.87,3.87,0,0,0-1.89-2,3.67,3.67,0,0,0-1.34-.41,3.55,3.55,0,0,0-1.41.13,3.31,3.31,0,0,0-1.23.68h0a3.31,3.31,0,0,0-.74,1.12,4,4,0,0,0-.14.46,2.52,2.52,0,0,1,.17-.44,3.05,3.05,0,0,1,.81-1,3.12,3.12,0,0,1,1.18-.62,3.24,3.24,0,0,1,1.35-.09,3.54,3.54,0,0,1,1.26.42,3.64,3.64,0,0,1,1.71,2,4.48,4.48,0,0,1,.29,1.7,3.82,3.82,0,0,1-.34,1.52,3.56,3.56,0,0,1-.87,1.2,3.65,3.65,0,0,1-1.33.78,5.31,5.31,0,0,1-2.87.23,4.64,4.64,0,0,1-1.52-.64,3.7,3.7,0,0,1-.63-.62c-.25-.33-.79-1.19-.68-1.64a5,5,0,0,0,1,1.34,4,4,0,0,0,1.95,1.09,4.77,4.77,0,0,0,2.62-.17,3.23,3.23,0,0,0,1.18-.67,3.07,3.07,0,0,0,.79-1.06,3.66,3.66,0,0,0,.32-1.35,4.07,4.07,0,0,0-.25-1.55,3.33,3.33,0,0,0-1.52-1.78,3.45,3.45,0,0,0-1.13-.39,3,3,0,0,0-1.2.06,2.81,2.81,0,0,0-1.06.54,2.7,2.7,0,0,0-.73.91,3,3,0,0,0-.32,1.21,3.51,3.51,0,0,0,.2,1.36,2.63,2.63,0,0,0,1.23,1.45,2.76,2.76,0,0,0,.92.3,2.4,2.4,0,0,0,1-.06h0a2.33,2.33,0,0,0,.86-.47,2.28,2.28,0,0,0,.56-.79,2.36,2.36,0,0,0,.2-1,2.66,2.66,0,0,0-.23-1,1.54,1.54,0,0,0-.61-.68,1.61,1.61,0,0,1,.66.66,2.59,2.59,0,0,1,.3,1.05,2.51,2.51,0,0,1-.15,1.05,2.55,2.55,0,0,1-.58.88,2.75,2.75,0,0,1-.66.45,1.9,1.9,0,0,1-.28.1,2.57,2.57,0,0,1-1.1.1,3,3,0,0,1-2.42-1.89c0-.14-.09-.26-.13-.4a4,4,0,0,1-.18-1.09c0-.16,0-.32,0-.48a4.23,4.23,0,0,0,0,.48,3.71,3.71,0,0,0,.27,1.51,3,3,0,0,0,1.44,1.59,2.88,2.88,0,0,0,1,.32,2.83,2.83,0,0,0,1.12-.1,2.77,2.77,0,0,0,1-.54,2.63,2.63,0,0,0,.65-.89,2.71,2.71,0,0,0,.24-1.09,3.16,3.16,0,0,0-.21-1.18,2,2,0,0,0-1-1,1.85,1.85,0,0,0-.69-.21,1.89,1.89,0,0,0-.75.08,1.85,1.85,0,0,0-.67.38,1.9,1.9,0,0,0-.44.61,1.93,1.93,0,0,0-.16.74,2.3,2.3,0,0,0,.15.78,2.1,2.1,0,0,1-.17-.77,1.94,1.94,0,0,1,.14-.76,1.88,1.88,0,0,1,.44-.64,1.82,1.82,0,0,1,.68-.41,1.94,1.94,0,0,1,.79-.1,1.9,1.9,0,0,1,.73.2,2.13,2.13,0,0,1,1,1.08,3.31,3.31,0,0,1,.25,1.24,3.09,3.09,0,0,1-.24,1.16,2.85,2.85,0,0,1-.68,1,2.9,2.9,0,0,1-2.25.72,3.15,3.15,0,0,1-1.12-.33,3.24,3.24,0,0,1-1.56-1.7,4.2,4.2,0,0,1-.29-1.6,3.56,3.56,0,0,1,.34-1.47,3.39,3.39,0,0,1,.87-1.18,3.66,3.66,0,0,1,1.31-.72,3.75,3.75,0,0,1,1.33-.14h.17a4,4,0,0,1,1.44.37,4.23,4.23,0,0,1,2.13,2.14,5.08,5.08,0,0,1,.47,2,4.77,4.77,0,0,1-.3,1.87,4.61,4.61,0,0,1-1,1.59,4.68,4.68,0,0,1-1.67,1.1,6.46,6.46,0,0,1-3.53.39,6.79,6.79,0,0,1-1-.27,5.3,5.3,0,1,0,2.73-9.84Z"/><path class="cls-8" d="M90.71,37.07a4.34,4.34,0,0,0,1.57,1.77,5.23,5.23,0,0,0,.87.31A4.93,4.93,0,0,0,96,38.91a3.79,3.79,0,0,0,1.4-.9,3.5,3.5,0,0,0,.84-1.33,3.78,3.78,0,0,0,.24-1.56,4.46,4.46,0,0,0-.42-1.61,3.53,3.53,0,0,0-1.79-1.7,3.61,3.61,0,0,0-.87-.24,3.58,3.58,0,0,1,.85.3,3.38,3.38,0,0,1,1.59,1.74,4.14,4.14,0,0,1,.29,1.51,3.72,3.72,0,0,1-.28,1.4,3.59,3.59,0,0,1-.79,1.14,3.4,3.4,0,0,1-1.23.75,4.81,4.81,0,0,1-2.6.24,4.33,4.33,0,0,1-2.08-1.07,5.61,5.61,0,0,1-.48-.51M94.56,31c-4.78,0-5.56,6.36-1.24,7.46a4.41,4.41,0,0,0,2.49-.18,3.14,3.14,0,0,0,1.18-.7,3.07,3.07,0,0,0,.76-1.09A3.37,3.37,0,0,0,98,35.13a3.88,3.88,0,0,0-.29-1.46,3.23,3.23,0,0,0-2.6-2A2.74,2.74,0,0,0,94,31.8a2.6,2.6,0,0,0-1,.54h0a2.47,2.47,0,0,0-.59.9,2.29,2.29,0,0,0-.12.37,3,3,0,0,1,.14-.36,2.54,2.54,0,0,1,.65-.84,2.63,2.63,0,0,1,1-.5,2.86,2.86,0,0,1,1.09-.07,3,3,0,0,1,1,.34,2.93,2.93,0,0,1,1.38,1.58,3.72,3.72,0,0,1,.24,1.36,3.2,3.2,0,0,1-.28,1.22,2.84,2.84,0,0,1-.7,1,3.12,3.12,0,0,1-1.07.63,4.24,4.24,0,0,1-2.31.17,3.42,3.42,0,0,1-1.23-.51,3,3,0,0,1-.51-.5c-.2-.26-.63-1-.54-1.32a4,4,0,0,0,.79,1.08,3.35,3.35,0,0,0,1.58.88,3.85,3.85,0,0,0,2.1-.14,2.62,2.62,0,0,0,1-.54,2.52,2.52,0,0,0,.63-.85,2.73,2.73,0,0,0,.26-1.09,3.34,3.34,0,0,0-.2-1.25A2.66,2.66,0,0,0,96,32.46a2.41,2.41,0,0,0-.9-.31,2.27,2.27,0,0,0-1,.05,2.18,2.18,0,0,0-.86.43,2.32,2.32,0,0,0-.59.73,2.36,2.36,0,0,0-.25,1,2.72,2.72,0,0,0,.16,1.1,2.11,2.11,0,0,0,1.74,1.41,1.81,1.81,0,0,0,.8-.05h0a1.86,1.86,0,0,0,.68-.39,1.8,1.8,0,0,0,.46-.63,2.1,2.1,0,0,0,.16-.79,2.18,2.18,0,0,0-.19-.83,1.3,1.3,0,0,0-.49-.55,1.23,1.23,0,0,1,.53.53,2.14,2.14,0,0,1,.25.85,2,2,0,0,1-.13.84,1.85,1.85,0,0,1-.46.71,2.19,2.19,0,0,1-.53.37s-.2.08-.23.08a2.25,2.25,0,0,1-.89.08,2.38,2.38,0,0,1-.82-.26,2.35,2.35,0,0,1-1.13-1.27,3,3,0,0,1-.1-.32,3.17,3.17,0,0,1-.15-.87c0-.14,0-.26,0-.39a2.66,2.66,0,0,0,0,.39,3.12,3.12,0,0,0,.21,1.21,2.42,2.42,0,0,0,1.16,1.28,2.31,2.31,0,0,0,1.74.18,2.13,2.13,0,0,0,.79-.44,2.29,2.29,0,0,0,.52-.71,2.41,2.41,0,0,0,0-1.83,1.62,1.62,0,0,0-.77-.84,1.9,1.9,0,0,0-.56-.17,1.57,1.57,0,0,0-.61.07,1.44,1.44,0,0,0-.54.3,1.56,1.56,0,0,0-.35.5,1.49,1.49,0,0,0-.13.59,1.68,1.68,0,0,0,.12.63,1.51,1.51,0,0,1-.13-.63,1.46,1.46,0,0,1,.11-.61,1.6,1.6,0,0,1,.35-.51,1.47,1.47,0,0,1,.55-.33,1.5,1.5,0,0,1,.63-.08,1.53,1.53,0,0,1,.59.16,1.68,1.68,0,0,1,.85.87,2.87,2.87,0,0,1,.2,1,2.54,2.54,0,0,1-.19.94,2.47,2.47,0,0,1-.55.77,2.31,2.31,0,0,1-.85.48,2.44,2.44,0,0,1-1,.1,2.67,2.67,0,0,1-.9-.27,2.58,2.58,0,0,1-1.25-1.37,3.17,3.17,0,0,1-.23-1.29,2.83,2.83,0,0,1,.27-1.18,2.73,2.73,0,0,1,.7-.95,2.78,2.78,0,0,1,1-.58A3,3,0,0,1,95,31.51h.13a3.26,3.26,0,0,1,1.16.3A3.39,3.39,0,0,1,98,33.54a4.16,4.16,0,0,1,.38,1.58,3.9,3.9,0,0,1-.25,1.51,3.47,3.47,0,0,1-.82,1.28,3.72,3.72,0,0,1-1.34.88,5.12,5.12,0,0,1-2.84.32,5.81,5.81,0,0,1-.8-.22,4.2,4.2,0,0,0,2.2.61,4.27,4.27,0,0,0,0-8.53Z"/><path class="cls-3" d="M98.15,29l-1.37-1.37L95.4,29l1.38,1.36Zm-2.73,0L94,27.58,92.67,29,94,30.31Z"/></g></g></svg>